<?xml version="1.0" standalone="no"?><!DOCTYPE svg PUBLIC "-//W3C//DTD SVG 1.1//EN" "http://www.w3.org/Graphics/SVG/1.1/DTD/svg11.dtd"><svg t="1619404815920" class="icon" viewBox="0 0 1024 1024" version="1.1" xmlns="http://www.w3.org/2000/svg" p-id="3311" xmlns:xlink="http://www.w3.org/1999/xlink" width="200" height="200"><defs><style type="text/css"></style></defs><path d="M511.360594 1022.181426a510.182107 510.182107 0 0 1-211.250828-45.430286 34.072714 34.072714 0 0 1 28.166777-62.239491 436.585044 436.585044 0 0 0 181.721142 39.524348 443.399587 443.399587 0 1 0-367.076707-195.350228 34.072714 34.072714 0 0 1-56.787857 38.16144 511.090713 511.090713 0 1 1 423.864564 227.151428z" fill="#20002A" p-id="3312"></path><path d="M400.510697 613.763158a35.435623 35.435623 0 0 1-23.623749-9.994663l-139.016674-136.290856a34.072714 34.072714 0 0 1 0-48.156103 34.072714 34.072714 0 0 1 48.156103 0l139.016674 136.290857a34.072714 34.072714 0 0 1 0 48.156102 34.527017 34.527017 0 0 1-24.532354 9.994663z" fill="#20002A" p-id="3313"></path><path d="M262.856932 614.671764a33.618411 33.618411 0 0 1-24.078052-9.994663 34.072714 34.072714 0 0 1 0-48.156103l136.290857-139.016673a34.072714 34.072714 0 0 1 48.610406 48.156102l-136.290857 139.016674a36.798531 36.798531 0 0 1-24.532354 9.994663zM629.025033 747.328198a34.072714 34.072714 0 0 1-34.072714-34.072714v-363.442285a73.14276 73.14276 0 0 0-24.078051 18.172114l-37.252834 45.430286a34.072714 34.072714 0 0 1-47.7018 5.451634 33.618411 33.618411 0 0 1-5.451634-47.7018l37.252834-45.430285A127.659102 127.659102 0 0 1 636.293879 276.670439a34.072714 34.072714 0 0 1 27.258171 33.164109v403.420936a33.618411 33.618411 0 0 1-34.527017 34.072714z" fill="#20002A" p-id="3314"></path></svg>