<?xml version="1.0" standalone="no"?><!DOCTYPE svg PUBLIC "-//W3C//DTD SVG 1.1//EN" "http://www.w3.org/Graphics/SVG/1.1/DTD/svg11.dtd"><svg t="1619404909990" class="icon" viewBox="0 0 1024 1024" version="1.1" xmlns="http://www.w3.org/2000/svg" p-id="4031" xmlns:xlink="http://www.w3.org/1999/xlink" width="200" height="200"><defs><style type="text/css"></style></defs><path d="M511.360594 1022.181426a510.182107 510.182107 0 0 1-211.250828-45.430286 34.072714 34.072714 0 0 1 28.166777-62.239491 437.947953 437.947953 0 0 0 181.721142 39.524348 443.399587 443.399587 0 1 0-367.076707-195.350228 34.072714 34.072714 0 0 1-56.787857 38.16144 511.090713 511.090713 0 1 1 423.864564 227.151428z" fill="#20002A" p-id="4032"></path><path d="M400.510697 613.763158a33.618411 33.618411 0 0 1-23.623749-9.994663l-139.016674-136.290856a34.072714 34.072714 0 0 1 0-48.156103 34.072714 34.072714 0 0 1 48.156103 0l139.016674 136.290857a34.072714 34.072714 0 0 1 0 48.156102 34.527017 34.527017 0 0 1-24.532354 9.994663z" fill="#20002A" p-id="4033"></path><path d="M262.856932 614.671764a33.618411 33.618411 0 0 1-24.078052-9.994663 34.072714 34.072714 0 0 1 0-48.156103l136.290857-139.016673a34.072714 34.072714 0 0 1 48.610406 48.156102l-136.290857 139.016674a36.798531 36.798531 0 0 1-24.532354 9.994663zM496.368599 741.876564a34.072714 34.072714 0 0 1-13.629085-65.419612l7.723148-7.268845 7.723149-7.723149 26.349566-22.26084 45.430285-38.615743 41.34156-34.072714 22.26084-18.626417A560.155421 560.155421 0 0 0 690.355919 499.733141a81.774514 81.774514 0 0 0 27.258171-50.881919 98.58372 98.58372 0 0 0-196.713136 0 34.072714 34.072714 0 0 1-68.145429 0 166.729148 166.729148 0 0 1 333.003994 0 147.648428 147.648428 0 0 1-45.430286 97.220811 622.849215 622.849215 0 0 1-64.056703 56.787857l-21.352234 17.717811-41.34156 34.98132-24.532354 19.989326h171.272177a34.072714 34.072714 0 1 1 0 68.145428h-263.94996z m0-68.145429z m0 0z" fill="#20002A" p-id="4034"></path></svg>