<?xml version="1.0" standalone="no"?><!DOCTYPE svg PUBLIC "-//W3C//DTD SVG 1.1//EN" "http://www.w3.org/Graphics/SVG/1.1/DTD/svg11.dtd"><svg t="1619404877022" class="icon" viewBox="0 0 1024 1024" version="1.1" xmlns="http://www.w3.org/2000/svg" p-id="3601" xmlns:xlink="http://www.w3.org/1999/xlink" width="200" height="200"><defs><style type="text/css"></style></defs><path d="M511.360594 1022.181426a510.182107 510.182107 0 0 1-211.250828-45.430286 34.072714 34.072714 0 0 1 28.166777-62.239491 436.585044 436.585044 0 0 0 181.721142 39.524348 443.399587 443.399587 0 1 0-367.076707-195.350228 34.072714 34.072714 0 0 1-56.787857 38.16144 511.090713 511.090713 0 1 1 423.864564 227.151428z" fill="#20002A" p-id="3602"></path><path d="M400.510697 613.763158a33.618411 33.618411 0 0 1-23.623749-9.994663l-139.016674-136.290856a34.072714 34.072714 0 0 1 0-48.156103 34.072714 34.072714 0 0 1 48.156103 0l139.016674 136.290857a34.072714 34.072714 0 0 1 0 48.156102 34.527017 34.527017 0 0 1-24.532354 9.994663z" fill="#20002A" p-id="3603"></path><path d="M262.856932 614.671764a33.618411 33.618411 0 0 1-24.078052-9.994663 34.072714 34.072714 0 0 1 0-48.156103l136.290857-139.016673a34.072714 34.072714 0 0 1 48.610406 48.156102l-136.290857 139.016674a36.798531 36.798531 0 0 1-24.532354 9.994663zM666.277868 760.502981A155.82588 155.82588 0 0 1 500.003022 618.76049a34.072714 34.072714 0 1 1 68.145429 0c0 40.432954 45.430286 73.597063 98.129417 73.597062s97.675114-33.164108 97.675114-73.597062S720.339907 545.163427 666.277868 545.163427a34.072714 34.072714 0 0 1 0-68.145428c54.06204 0 97.675114-33.164108 97.675114-73.597063s-45.430286-73.597063-97.675114-73.597063S568.148451 363.442285 568.148451 403.420936a34.072714 34.072714 0 1 1-68.145429 0 155.82588 155.82588 0 0 1 166.274846-141.742491 155.371577 155.371577 0 0 1 165.820542 141.742491A133.110737 133.110737 0 0 1 772.584736 511.090713a133.110737 133.110737 0 0 1 58.150765 107.669777 155.371577 155.371577 0 0 1-164.457633 141.742491z" fill="#20002A" p-id="3604"></path></svg>