<?xml version="1.0" standalone="no"?><!DOCTYPE svg PUBLIC "-//W3C//DTD SVG 1.1//EN" "http://www.w3.org/Graphics/SVG/1.1/DTD/svg11.dtd"><svg t="1623126037295" class="icon" viewBox="0 0 1024 1024" version="1.1" xmlns="http://www.w3.org/2000/svg" p-id="3589" xmlns:xlink="http://www.w3.org/1999/xlink" width="200" height="200"><defs><style type="text/css"></style></defs><path d="M352.64512 313.58976V159.85664c0-1.024-0.20992-1.98144-0.24064-2.9952V149.9136h-0.5632c-3.90144-33.9456-27.06944-60.12928-55.35232-60.12928H98.50368c-28.28288 0-51.45088 26.18368-55.35232 60.12928h-0.80384v228.1984h0.24064v62.65856c-0.03584 1.10592-0.24064 2.14016-0.24064 3.25632V876.83584h0.80384c3.90144 33.9456 27.06432 60.12416 55.3472 60.12928H296.48896c28.28288 0 51.45088-26.18368 55.35232-60.12928h0.5632v-5.22752h0.24064V373.89824h-0.24064V316.59008c0.03584-1.01888 0.24064-1.9712 0.24064-3.00032z" fill="#3BCDAE" p-id="3590"></path><path d="M197.49888 762.79808m-84.02432 0a84.02432 84.02432 0 1 0 168.04864 0 84.02432 84.02432 0 1 0-168.04864 0Z" fill="#FFFFFF" p-id="3591"></path><path d="M120.61184 192.54784h153.77408v390.84544H120.61184z" fill="#FFFFFF" p-id="3592"></path><path d="M197.49888 762.79808m-39.17312 0a39.17312 39.17312 0 1 0 78.34624 0 39.17312 39.17312 0 1 0-78.34624 0Z" fill="#3BCDAE" p-id="3593"></path><path d="M662.96832 313.58976V159.85664c0-1.024-0.20992-1.98144-0.24064-2.9952V149.9136h-0.5632c-3.90144-33.9456-27.06944-60.12928-55.35232-60.12928H408.82688c-28.28288 0-51.45088 26.18368-55.35232 60.12928h-0.80384v228.1984h0.24064v62.65856c-0.03584 1.10592-0.24064 2.14016-0.24064 3.25632V876.83584h0.80384c3.90144 33.9456 27.06432 60.12416 55.3472 60.12928H606.81216c28.28288 0 51.45088-26.18368 55.35232-60.12928h0.5632v-5.22752h0.24064V373.89824h-0.24064V316.59008c0.03584-1.01888 0.24064-1.9712 0.24064-3.00032z" fill="#FCE38A" p-id="3594"></path><path d="M507.82208 762.79808m-84.02432 0a84.02432 84.02432 0 1 0 168.04864 0 84.02432 84.02432 0 1 0-168.04864 0Z" fill="#FFFFFF" p-id="3595"></path><path d="M430.93504 192.54784h153.77408v390.84544H430.93504z" fill="#FFFFFF" p-id="3596"></path><path d="M507.82208 762.79808m-39.17312 0a39.17312 39.17312 0 1 0 78.34624 0 39.17312 39.17312 0 1 0-78.34624 0Z" fill="#FCE38A" p-id="3597"></path><path d="M976.92672 313.58976V159.85664c0-1.024-0.20992-1.98144-0.24064-2.9952V149.9136h-0.5632c-3.90144-33.9456-27.06944-60.12928-55.35232-60.12928h-197.98528c-28.28288 0-51.45088 26.18368-55.35232 60.12928h-0.80384v228.1984h0.24064v62.65856c-0.03584 1.10592-0.24064 2.14016-0.24064 3.25632V876.83584h0.80384c3.90144 33.9456 27.06432 60.12416 55.3472 60.12928H920.77056c28.28288 0 51.45088-26.18368 55.35232-60.12928h0.5632v-5.22752h0.24064V373.89824h-0.24064V316.59008c0.03584-1.01888 0.24064-1.9712 0.24064-3.00032z" fill="#78CEF4" p-id="3598"></path><path d="M821.78048 762.79808m-84.02432 0a84.02432 84.02432 0 1 0 168.04864 0 84.02432 84.02432 0 1 0-168.04864 0Z" fill="#FFFFFF" p-id="3599"></path><path d="M744.89344 192.54784h153.77408v390.84544h-153.77408z" fill="#FFFFFF" p-id="3600"></path><path d="M821.78048 762.79808m-39.17312 0a39.17312 39.17312 0 1 0 78.34624 0 39.17312 39.17312 0 1 0-78.34624 0Z" fill="#78CEF4" p-id="3601"></path></svg>