<?xml version="1.0" standalone="no"?><!DOCTYPE svg PUBLIC "-//W3C//DTD SVG 1.1//EN" "http://www.w3.org/Graphics/SVG/1.1/DTD/svg11.dtd"><svg t="1623285877758" class="icon" viewBox="0 0 1024 1024" version="1.1" xmlns="http://www.w3.org/2000/svg" p-id="23427" xmlns:xlink="http://www.w3.org/1999/xlink" width="200" height="200"><defs><style type="text/css"></style></defs><path d="M832 112a80 80 0 0 1 0 160H192a80 80 0 0 1 0-160z m0-48H192a128 128 0 0 0 0 256h640a128 128 0 0 0 0-256z" fill="" p-id="23428"></path><path d="M832 752a80 80 0 0 1 0 160H192a80 80 0 0 1 0-160z m0-48H192a128 128 0 0 0 0 256h640a128 128 0 0 0 0-256zM832 432a80 80 0 0 1 0 160H192a80 80 0 0 1 0-160z m0-48H192a128 128 0 0 0 0 256h640a128 128 0 0 0 0-256z" fill="" p-id="23429"></path><path d="M200.16 144a48 48 0 1 1-48 48 48 48 0 0 1 48-48z m0 32a16 16 0 1 0 16 16 16 16 0 0 0-16-16zM832 176H304a16 16 0 0 0 0 32h528a16 16 0 0 0 0-32z" fill="#0070FF" p-id="23430"></path><path d="M200.16 784a48 48 0 1 1-48 48 48 48 0 0 1 48-48z m0 32a16 16 0 1 0 16 16 16 16 0 0 0-16-16z" fill="#0070FF" p-id="23431"></path><path d="M832 816H304a16 16 0 0 0 0 32h528a16 16 0 0 0 0-32z" fill="#0070FF" p-id="23432"></path><path d="M823.84 496a16 16 0 1 1-16 16 16 16 0 0 1 16-16z m0-32a48 48 0 1 0 48 48 48 48 0 0 0-48-48zM720 496H192a16 16 0 0 0 0 32h528a16 16 0 0 0 0-32z" fill="" p-id="23433"></path></svg>