<?xml version="1.0" encoding="utf-8"?>
<!-- Generator: Adobe Illustrator 16.0.0, SVG Export Plug-In . SVG Version: 6.00 Build 0)  -->
<!DOCTYPE svg PUBLIC "-//W3C//DTD SVG 1.1//EN" "http://www.w3.org/Graphics/SVG/1.1/DTD/svg11.dtd">
<svg version="1.1" id="图层_1" xmlns="http://www.w3.org/2000/svg" xmlns:xlink="http://www.w3.org/1999/xlink" x="0px" y="0px"
	 width="32px" height="32px" viewBox="0 0 32 32" enable-background="new 0 0 32 32" xml:space="preserve">
<path fill="#1F77B4" d="M12.911,10.5c2.677,0,3.998,1.174,5.832,4.381l0.72,1.288l0.309,0.528l0.295,0.482
	c1.31,2.066,2.338,2.776,4.154,2.776c3.534,0,5.566-2.688,6.094-8.277l0.058-0.713c0.019-0.275,0.257-0.483,0.532-0.465
	c0.276,0.019,0.484,0.257,0.466,0.533l0,0c-0.45,6.534-2.833,9.922-7.149,9.922c-2.563,0-3.824-1.136-5.623-4.285l-0.72-1.29
	c-1.662-2.908-2.764-3.881-4.967-3.881c-3.876,0-6.332,2.52-7.422,7.719c-0.067,0.268-0.339,0.432-0.606,0.363
	c-0.253-0.063-0.416-0.311-0.372-0.568C5.689,13.391,8.507,10.5,12.911,10.5z"/>
<path d="M1.64,30.523v-28.5c0-0.276,0.223-0.5,0.499-0.501c0.242,0,0.45,0.173,0.493,0.411l0.008,0.09v5.5h1.5
	c0.276,0,0.5,0.223,0.501,0.499c0,0.242-0.173,0.45-0.411,0.493L4.14,8.523h-1.5v7h1.5c0.276,0,0.5,0.223,0.501,0.499
	c0,0.242-0.173,0.45-0.411,0.494l-0.09,0.008h-1.5v6h1.5c0.276-0.001,0.5,0.223,0.501,0.498c0,0.242-0.173,0.45-0.411,0.494
	l-0.09,0.008h-1.5v6h7v-1.5c0-0.276,0.223-0.501,0.499-0.502c0.242,0,0.45,0.174,0.493,0.412l0.008,0.09v1.5h6v-1.5
	c-0.001-0.276,0.223-0.501,0.498-0.502c0.242,0,0.45,0.174,0.493,0.412l0.009,0.09v1.5h6v-1.5c-0.001-0.276,0.223-0.501,0.498-0.502
	c0.242,0,0.45,0.174,0.493,0.412l0.009,0.09v1.5h5.5c0.24,0,0.447,0.172,0.491,0.41l0.009,0.09c0,0.241-0.173,0.448-0.41,0.492
	l-0.09,0.008H1.64z"/>
<line fill="none" stroke="#000000" stroke-miterlimit="10" stroke-dasharray="4,2" x1="12.625" y1="27.625" x2="12.625" y2="1.522"/>
<line fill="none" stroke="#000000" stroke-miterlimit="10" stroke-dasharray="4,2" x1="2.64" y1="11" x2="30.372" y2="11"/>
<circle stroke="#E60012" stroke-miterlimit="10" cx="12.625" cy="11" r="1.25"/>
</svg>
