<?xml version="1.0" standalone="no"?><!DOCTYPE svg PUBLIC "-//W3C//DTD SVG 1.1//EN" "http://www.w3.org/Graphics/SVG/1.1/DTD/svg11.dtd"><svg t="1621563405893" class="icon" viewBox="0 0 1024 1024" version="1.1" xmlns="http://www.w3.org/2000/svg" p-id="11036" xmlns:xlink="http://www.w3.org/1999/xlink" width="200" height="200"><defs><style type="text/css"></style></defs><path d="M0 0h1024v1024H0z" fill="#000000" fill-opacity="0" p-id="11037"></path><path d="M513.28 56.576l144.768 144.768-40.704 40.704L542.08 166.848V483.2h316.352l-75.2-75.264 40.704-40.704L968.704 512l-144.768 144.768-40.704-40.704 75.2-75.264H542.08v316.352l75.264-75.2 40.704 40.704-144.768 144.768-144.768-144.768 40.704-40.704 75.264 75.2V540.8H168.128l75.2 75.264-40.704 40.704L57.856 512l144.768-144.768 40.704 40.704L168.128 483.2H484.48V166.848L409.216 242.048l-40.704-40.704L513.28 56.576z" fill="#000000" p-id="11038"></path></svg>