<?xml version="1.0" standalone="no"?><!DOCTYPE svg PUBLIC "-//W3C//DTD SVG 1.1//EN" "http://www.w3.org/Graphics/SVG/1.1/DTD/svg11.dtd"><svg t="1621763717451" class="icon" viewBox="0 0 1024 1024" version="1.1" xmlns="http://www.w3.org/2000/svg" p-id="14218" xmlns:xlink="http://www.w3.org/1999/xlink" width="32" height="32"><defs><style type="text/css"></style></defs><path d="M551.384615 712.467692a16.147692 16.147692 0 0 1-16.147692-16.147692v-289.870769a16.147692 16.147692 0 0 1 32.295385 0v289.870769a16.147692 16.147692 0 0 1-16.147693 16.147692z" fill="#3F80D3" p-id="14219"></path><path d="M551.384615 720.344615a24.024615 24.024615 0 0 1-24.024615-24.024615v-289.870769a24.024615 24.024615 0 0 1 48.049231 0v289.870769a24.024615 24.024615 0 0 1-24.024616 24.024615z m0-322.166153a8.270769 8.270769 0 0 0-8.270769 8.270769v289.870769a8.270769 8.270769 0 0 0 16.541539 0v-289.870769a8.270769 8.270769 0 0 0-8.27077-8.270769z" fill="#3F80D3" p-id="14220"></path><path d="M696.32 567.532308h-289.870769a16.147692 16.147692 0 0 1 0-32.295385h289.870769a16.147692 16.147692 0 0 1 0 32.295385z" fill="#3F80D3" p-id="14221"></path><path d="M696.32 575.409231h-289.870769a24.024615 24.024615 0 0 1 0-48.049231h289.870769a24.024615 24.024615 0 0 1 0 48.049231z m-289.870769-32.295385a8.270769 8.270769 0 0 0 0 16.541539h289.870769a8.270769 8.270769 0 0 0 0-16.541539zM799.113846 799.113846L1024 1024M938.535385 938.535385L787.692308 787.692308" fill="#3F80D3" p-id="14222"></path><path d="M972.012308 905.846154l-150.843077-150.843077a48.443077 48.443077 0 0 0-20.086154-11.027692 315.076923 315.076923 0 1 0-57.895385 57.895384 48.443077 48.443077 0 0 0 11.027693 20.086154L905.846154 972.012308a47.261538 47.261538 0 0 0 33.476923 13.784615 48.836923 48.836923 0 0 0 33.476923-13.784615 48.049231 48.049231 0 0 0-0.787692-66.166154zM267.815385 551.384615a283.569231 283.569231 0 1 1 283.56923 283.569231A283.963077 283.963077 0 0 1 267.815385 551.384615zM241.033846 708.923077H118.153846v-39.384615h122.88zM39.384615 650.24v-122.88h39.384616v122.486154z m39.384616-204.406154H39.384615V323.347692h39.384616z m0-204.406154H39.384615V118.153846h39.384616z m630.153846-21.267692h-39.384615V98.461538h39.384615zM630.153846 78.769231h-123.667692V39.384615H630.153846z m-205.193846 0H302.473846V39.384615h122.486154zM220.553846 78.769231H98.461538V39.384615h122.092308z" fill="#4C4C4C" p-id="14223"></path></svg>