<?xml version="1.0" standalone="no"?><!DOCTYPE svg PUBLIC "-//W3C//DTD SVG 1.1//EN" "http://www.w3.org/Graphics/SVG/1.1/DTD/svg11.dtd"><svg t="1621562767888" class="icon" viewBox="0 0 1024 1024" version="1.1" xmlns="http://www.w3.org/2000/svg" p-id="9432" xmlns:xlink="http://www.w3.org/1999/xlink" width="200" height="200"><defs><style type="text/css"></style></defs><path d="M822.2 706.9L706 823.1 589.8 706.9 706 590.7l116.2 116.2z m0 0" fill="#344A5E" p-id="9433"></path><path d="M857.8 695.5l129.1 129.2c45.1 45.1 45.3 118.3 0.2 163.4-45.1 45.1-118.3 44.9-163.3-0.2L694.6 858.7l163.2-163.2z m0 0" fill="#FFD15C" p-id="9434"></path><path d="M857.8 695.5l25 25-163.1 163.2-25-25 163.1-163.2z m0 0" fill="#F7B64C" p-id="9435"></path><path d="M857.7 695.5L694.5 858.7c-15.8 15.8-41.5 15.8-57.3 0-15.8-15.8-15.8-41.5 0-57.3l163.2-163.2c15.8-15.8 41.5-15.8 57.3 0 15.8 15.8 15.8 41.5 0 57.3z m0 0" fill="#FFD15C" p-id="9436"></path><path d="M538.2 357.7h-83.8v-83.8c0-26.3-21.5-47.9-47.9-47.9s-47.9 21.5-47.9 47.9v83.8H275c-26.3 0-47.9 21.5-47.9 47.9 0 26.3 21.5 47.9 47.9 47.9h83.8v83.8c0 26.3 21.5 47.9 47.9 47.9s47.9-21.5 47.9-47.9v-83.8h83.8c26.3 0 47.9-21.5 47.9-47.9-0.2-26.4-21.7-47.9-48.1-47.9z m0 0" fill="#415A6B" p-id="9437"></path><path d="M406.6 1.6C183.6 1.6 2.7 182.5 2.7 405.5c0 223.1 180.8 403.9 403.9 403.9 223.1 0 403.9-180.8 403.9-403.9 0-223-180.8-403.9-403.9-403.9z m0 712.1c-170.2 0-308.1-138-308.1-308.1s138-308.1 308.1-308.1 308.1 138 308.1 308.1-137.9 308.1-308.1 308.1z m0 0" fill="#415A6B" p-id="9438"></path></svg>