<?xml version="1.0" standalone="no"?><!DOCTYPE svg PUBLIC "-//W3C//DTD SVG 1.1//EN" "http://www.w3.org/Graphics/SVG/1.1/DTD/svg11.dtd"><svg t="1621562749603" class="icon" viewBox="0 0 1024 1024" version="1.1" xmlns="http://www.w3.org/2000/svg" p-id="8539" xmlns:xlink="http://www.w3.org/1999/xlink" width="200" height="200"><defs><style type="text/css"></style></defs><path d="M38.518154 338.944c-19.219692 0-38.360615-12.839385-38.360616-38.360615V95.940923c0-38.360615 19.140923-63.960615 51.2-83.101538 19.140923-6.380308 31.901538-6.380308 38.281847-6.380308L300.662154 0c19.140923 0 38.360615 19.140923 38.360615 38.360615 0 25.521231-19.219692 44.740923-38.360615 44.740923h-217.403077s-6.380308 0-6.380308 12.760616v204.642461c0 25.521231-12.760615 38.360615-38.360615 38.360616z" fill="#5E6D82" p-id="8540"></path><path d="M377.383385 415.665231c-12.760615 0-19.219692-6.380308-31.980308-12.839385L44.898462 102.4a38.912 38.912 0 0 1 0-51.121231 38.912 38.912 0 0 1 51.2 0l300.425846 300.504616a38.912 38.912 0 0 1 0 51.2c0 6.301538-12.760615 12.760615-19.140923 12.760615zM984.772923 338.944c-19.140923 0-38.360615-19.219692-38.360615-38.360615V95.940923c0-6.380308 0-6.380308-6.380308-12.760615h-217.403077c-19.140923 0-38.360615-19.219692-38.360615-38.360616 0-19.219692 19.219692-38.360615 38.360615-38.360615l211.022769 6.380308c6.380308 0 19.140923 0 31.980308 6.380307 31.980308 12.760615 51.121231 44.740923 51.121231 83.101539v204.642461c6.380308 19.140923-12.760615 31.980308-31.980308 31.980308z" fill="#5E6D82" p-id="8541"></path><path d="M652.288 415.665231c-12.760615 0-19.140923-6.380308-25.521231-12.839385a38.912 38.912 0 0 1 0-51.121231L927.271385 51.2a38.912 38.912 0 0 1 51.12123 0 38.912 38.912 0 0 1 0 51.2L677.888 402.747077c-6.380308 6.459077-19.219692 12.839385-25.6 12.839385zM722.628923 1023.054769c-19.140923 0-38.360615-19.219692-38.360615-38.360615 0-19.219692 19.219692-38.360615 38.360615-38.360616l211.022769-6.380307h6.380308s6.380308 0 6.380308-12.839385V722.550154c0-19.219692 19.219692-38.360615 38.360615-38.360616 19.219692 0 38.360615 19.140923 38.360615 38.360616v204.563692c0 38.360615-19.140923 63.960615-51.2 83.180308-12.681846 6.301538-25.521231 6.301538-38.281846 6.301538l-211.022769 6.459077c6.380308 0 6.380308 0 0 0z" fill="#5E6D82" p-id="8542"></path><path d="M952.792615 991.074462c-12.760615 0-19.140923-6.380308-25.52123-12.760616L626.766769 677.809231a38.912 38.912 0 0 1 0-51.2 38.912 38.912 0 0 1 51.121231 0l300.504615 300.504615a38.912 38.912 0 0 1 0 51.2c-6.380308 12.760615-19.140923 12.760615-25.6 12.760616zM300.662154 1023.054769H89.639385c-6.301538 0-25.521231 0-38.360616-6.380307-31.980308-12.839385-51.2-44.740923-51.2-83.101539V728.930462c0-19.140923 19.219692-38.360615 38.439385-38.360616 19.140923 0 38.360615 19.219692 38.360615 38.360616v204.642461c0 6.301538 0 6.301538 6.380308 12.760615h6.380308l211.022769 6.380308c19.140923 0 38.360615 19.219692 38.360615 38.360616 0 19.219692-19.219692 31.980308-38.360615 31.980307z" fill="#5E6D82" p-id="8543"></path><path d="M70.498462 991.074462c-12.839385 0-19.219692-6.380308-25.6-12.760616a38.912 38.912 0 0 1 0-51.2l300.504615-300.504615a38.912 38.912 0 0 1 51.2 0 38.912 38.912 0 0 1 0 51.2L95.940923 978.313846c0 12.760615-12.760615 12.760615-25.521231 12.760616z" fill="#5E6D82" p-id="8544"></path></svg>