<?xml version="1.0" standalone="no"?><!DOCTYPE svg PUBLIC "-//W3C//DTD SVG 1.1//EN" "http://www.w3.org/Graphics/SVG/1.1/DTD/svg11.dtd"><svg t="1621563677166" class="icon" viewBox="0 0 1024 1024" version="1.1" xmlns="http://www.w3.org/2000/svg" p-id="20952" xmlns:xlink="http://www.w3.org/1999/xlink" width="200" height="200"><defs><style type="text/css"></style></defs><path d="M353.745 325.818H125.673c-6.982 0-13.964-4.654-18.618-11.636s-2.328-13.964 2.327-20.946l114.036-141.963c4.655-4.655 9.31-6.982 16.291-6.982 6.982 0 11.636 2.327 16.291 6.982l114.036 141.963c4.655 6.982 4.655 13.964 2.328 20.946s-11.637 11.636-18.619 11.636z m-186.181-39.563h144.29L239.71 195.49l-72.145 90.764z m169.89 293.236h-195.49c-11.637 0-20.946-9.31-20.946-18.618v-153.6a20.858 20.858 0 0 1 20.946-20.946h197.818a20.858 20.858 0 0 1 20.945 20.946v151.272c-2.327 11.637-11.636 20.946-23.272 20.946z m-176.872-39.564h158.254V425.891H160.582v114.036z m79.127 311.855c-65.164 0-118.69-53.527-118.69-118.691S174.544 614.4 239.708 614.4 358.4 667.927 358.4 733.09s-53.527 118.692-118.69 118.692z m0-197.818c-44.218 0-79.127 34.909-79.127 79.127s34.909 79.127 79.127 79.127 79.127-34.909 79.127-79.127-34.909-79.127-79.127-79.127zM896 281.6H458.473c-16.291 0-30.255-13.964-30.255-30.255s13.964-30.254 30.255-30.254H896c16.29 0 30.255 13.964 30.255 30.254S912.29 281.6 896 281.6z m0 251.345H458.473c-16.291 0-30.255-13.963-30.255-30.254s13.964-30.255 30.255-30.255H896c16.29 0 30.255 13.964 30.255 30.255S912.29 532.945 896 532.945z m0 249.019H458.473c-16.291 0-30.255-13.964-30.255-30.255s13.964-30.254 30.255-30.254H896c16.29 0 30.255 13.963 30.255 30.254S912.29 781.964 896 781.964z" p-id="20953"></path></svg>