<?xml version="1.0" standalone="no"?><!DOCTYPE svg PUBLIC "-//W3C//DTD SVG 1.1//EN" "http://www.w3.org/Graphics/SVG/1.1/DTD/svg11.dtd"><svg t="1621764781641" class="icon" viewBox="0 0 1024 1024" version="1.1" xmlns="http://www.w3.org/2000/svg" p-id="18655" xmlns:xlink="http://www.w3.org/1999/xlink" width="32" height="32"><defs><style type="text/css"></style></defs><path d="M832 928l-32-64v32h-51.2l-28.8 32zM672 896H64V64h736v460.8l32 35.2V32H32v896h640z" fill="#777677" p-id="18656"></path><path d="M96 96h192v192H96z" fill="#89A2F6" p-id="18657"></path><path d="M96 352h192v192H96z" fill="#FCAF6D" p-id="18658"></path><path d="M96 608h192v192H96z" fill="#00B6CB" p-id="18659"></path><path d="M576 160h-256v32h256V160z m-256 64v32h448V224H320z m256 192h-256v32h256v-32z m-256 96h352v-32H320v32z m256 160h-256v32h256v-32z m-256 96h352v-32H320v32z" fill="#949394" p-id="18660"></path><path d="M992 768l-288-288v416l96-96 96 192 64-32-96-192z" fill="#707070" p-id="18661"></path></svg>