<?xml version="1.0" standalone="no"?><!DOCTYPE svg PUBLIC "-//W3C//DTD SVG 1.1//EN" "http://www.w3.org/Graphics/SVG/1.1/DTD/svg11.dtd"><svg t="1623126103347" class="icon" viewBox="0 0 1024 1024" version="1.1" xmlns="http://www.w3.org/2000/svg" p-id="5979" xmlns:xlink="http://www.w3.org/1999/xlink" width="200" height="200"><defs><style type="text/css"></style></defs><path d="M85.333 965.973h853.334c30.72 0 58.026-17.066 71.68-40.96 13.653-27.306 13.653-58.026 0-85.333L583.68 98.987c-13.653-27.307-44.373-40.96-71.68-40.96s-58.027 17.066-71.68 40.96L13.653 839.68C3.413 853.333 0 866.987 0 880.64v3.413c0 13.654 3.413 27.307 10.24 40.96 17.067 27.307 44.373 40.96 75.093 40.96z m389.12-617.813c0-20.48 17.067-40.96 37.547-40.96s37.547 17.067 37.547 37.547v303.786c0 20.48-17.067 37.547-37.547 37.547s-37.547-17.067-37.547-37.547V348.16z m13.654 395.947c13.653-6.827 34.133-6.827 47.786 0 13.654 6.826 23.894 23.893 23.894 40.96s-10.24 30.72-23.894 40.96c-13.653 6.826-34.133 6.826-47.786 0-13.654-6.827-23.894-23.894-23.894-40.96s10.24-30.72 23.894-40.96z" fill="#F64040" p-id="5980"></path></svg>