<?xml version="1.0" standalone="no"?><!DOCTYPE svg PUBLIC "-//W3C//DTD SVG 1.1//EN" "http://www.w3.org/Graphics/SVG/1.1/DTD/svg11.dtd"><svg t="1621563824855" class="icon" viewBox="0 0 1024 1024" version="1.1" xmlns="http://www.w3.org/2000/svg" p-id="34421" xmlns:xlink="http://www.w3.org/1999/xlink" width="200" height="200"><defs><style type="text/css"></style></defs><path d="M0 0m512 0l0 0q512 0 512 512l0 0q0 512-512 512l0 0q-512 0-512-512l0 0q0-512 512-512Z" fill="#F41C1C" p-id="34422"></path><path d="M773.9904 673.792v-0.1024l-228.864-396.4416h-0.0512c-2.8672-10.5472-15.9744-18.432-31.6416-18.432-15.872 0-28.8768 8.0896-31.6416 18.7392l-234.2912 405.7088 0.2048 0.3072c-5.3248 5.2736-4.3008 17.92 2.9696 29.696 7.2704 11.9808 18.2784 18.688 25.3952 15.9232l0.256 0.4608h474.2144l0.3072-0.6144c7.8848 1.2288 17.664-5.7344 23.7056-18.1248 7.168-14.2848 6.656-30.3616-0.512-37.1712zM480.256 401.92a31.7952 31.7952 0 0 1 63.5904 0v163.7376a31.744 31.744 0 0 1-63.5904 0V401.92zM512 687.7696a34.6112 34.6112 0 1 1 0-69.1712 34.6112 34.6112 0 0 1 0 69.12z" fill="#FFFFFF" p-id="34423"></path></svg>