<?xml version="1.0" standalone="no"?><!DOCTYPE svg PUBLIC "-//W3C//DTD SVG 1.1//EN" "http://www.w3.org/Graphics/SVG/1.1/DTD/svg11.dtd"><svg t="1619960566116" class="icon" viewBox="0 0 3063 1024" version="1.1" xmlns="http://www.w3.org/2000/svg" p-id="6206" xmlns:xlink="http://www.w3.org/1999/xlink" width="95.71875" height="32"><defs><style type="text/css"></style></defs><path d="M168.226503 141.411982l658.265033 189.665531v692.897309L182.854895 679.112379z" p-id="6207" fill="#d81e06"></path><path d="M0 285.241047l237.93167-29.256783 215.586236 113.414096-188.545112 24.888408z" p-id="6208" fill="#d81e06"></path><path d="M0 285.241047v423.115526l264.935027 140.064961 199.296099-18.556152-10.750987-460.467022-188.545112 24.888408z m1089.802584 486.777984v-14.552858l1586.085246-200.542408 15.333375-20.243075-1601.418621 198.905841v-14.52768l1611.628281-197.886134 15.333374-20.142363L1089.802584 699.204386v-14.565446l1637.183905-195.015847 15.333374-20.142364L1089.802584 662.784475v-14.565446l1662.72694-192.044849 15.333374-19.991296-1678.060314 190.219447v-14.615803L2778.085148 422.863746l15.320785-19.903173L1089.802584 589.894297v-14.540269l1713.825599-185.62447 15.333374-19.840228L1089.802584 553.499564v-14.578036l1739.381222-182.250624 15.320786-19.752105L1089.802584 517.054474v-14.578035l1764.974613-178.675355 15.283019-19.676571L1089.802584 480.609385v-14.590624l1790.479881-174.986785 15.333374-19.575859L1100.830528 443.245301l-11.027944 16.655217v-46.138602l1857.050393-165.028903-272.375112 348.299234L1089.802584 819.17734v-25.341611l1560.542211-203.047615 15.320786-20.331198z m0 0" p-id="6209" fill="#d81e06"></path><path d="M168.226503 141.411982L2183.205616 0l880.674494 141.411982-16.86923 574.158075-2220.519344 308.429943V331.077513z m968.709212 248.682657v522.681747l1885.211935-264.242633 13.407261-431.80192z m0 0" p-id="6210" fill="#d81e06"></path></svg>