<?xml version="1.0" standalone="no"?><!DOCTYPE svg PUBLIC "-//W3C//DTD SVG 1.1//EN" "http://www.w3.org/Graphics/SVG/1.1/DTD/svg11.dtd"><svg t="1623126225456" class="icon" viewBox="0 0 1024 1024" version="1.1" xmlns="http://www.w3.org/2000/svg" p-id="13195" xmlns:xlink="http://www.w3.org/1999/xlink" width="200" height="200"><defs><style type="text/css"></style></defs><path d="M580.842 110.189c-2.215-1.019-4.625-1.79-7.217-1.79-9.691 0-17.568 7.685-17.568 17.374l0.01 73.894c0 6.514-5.279 11.796-11.795 11.796h-14.154c-6.516 0-11.795-5.282-11.795-11.796l-0.014-95.345c0-7.68-5.877-13.962-13.43-14.464 0 0-8.846-0.439-13.277-0.439-3.975 0-11.836 0.367-11.836 0.367-7.994 0-14.473 6.467-14.498 14.453v95.428c0 6.514-5.281 11.796-11.795 11.796h-14.154c-6.516 0-11.797-5.282-11.797-11.796l-0.012-73.723c0-9.688-7.857-17.545-17.547-17.545-2.338 0-4.559 0.479-6.602 1.31-67.182 32.734-113.48 101.669-113.48 181.431 0 2.936 0.076 5.853 0.201 8.757h403.04c0.125-2.904 0.203-5.821 0.203-8.757-0.001-79.367-45.839-148.02-112.483-180.951z" fill="#D53260" p-id="13196"></path><path d="M702.7 309.896H280.503l-0.412-9.57a211.65 211.65 0 0 1-0.21-9.187c0-40.454 11.452-79.781 33.118-113.73 21.083-33.035 50.815-59.554 85.982-76.69l0.612-0.273a27.401 27.401 0 0 1 10.37-2.047c15.189 0 27.547 12.356 27.547 27.545l0.012 73.721c0 0.992 0.806 1.797 1.797 1.797h14.154c0.99 0 1.795-0.806 1.795-1.796v-95.428c0.042-13.411 10.892-24.313 24.239-24.452 1.315-0.06 8.258-0.369 12.095-0.369 4.626 0 13.402 0.433 13.773 0.452l0.167 0.01c12.766 0.849 22.767 11.584 22.767 24.442l0.014 95.343c0 0.992 0.806 1.797 1.795 1.797h14.154c0.989 0 1.795-0.806 1.795-1.796l-0.01-73.892c0-15.096 12.367-27.375 27.568-27.375 3.71 0 7.438 0.885 11.396 2.705l0.251 0.12c34.89 17.24 64.368 43.752 85.248 76.671 21.461 33.835 32.805 72.995 32.805 113.245 0 2.861-0.069 5.866-0.212 9.187l-0.413 9.57z m-402.816-20H683.32c-0.457-72.951-41.273-138.249-106.771-170.674-1.226-0.553-2.183-0.823-2.924-0.823-4.244 0-7.568 3.239-7.568 7.374l0.01 73.892c0 12.02-9.777 21.797-21.795 21.797h-14.154c-12.018 0-21.795-9.777-21.795-21.796l-0.014-95.343c0-2.382-1.729-4.298-4.032-4.483-0.998-0.048-8.794-0.422-12.676-0.422-3.698 0-11.293 0.353-11.369 0.356l-0.467 0.011a4.507 4.507 0 0 0-4.498 4.485v95.396c0 12.019-9.777 21.796-21.795 21.796h-14.154c-12.019 0-21.797-9.777-21.797-21.796l-0.012-73.721c0-4.162-3.386-7.546-7.547-7.546-0.86 0-1.726 0.159-2.578 0.474-65.95 32.296-107.039 97.71-107.5 171.023z" fill="#323333" p-id="13197"></path><path d="M291.786 336.4c-0.003 0.569-0.023 1.136-0.023 1.704 0 110.69 89.732 200.43 200.422 200.43 110.692 0 200.424-89.739 200.424-200.43 0-0.568-0.018-1.135-0.023-1.704h-400.8z" fill="#FFFFFF" p-id="13198"></path><path d="M492.184 548.534c-116.027 0-210.422-94.398-210.422-210.43 0-0.371 0.006-0.741 0.014-1.11l0.01-0.645 0.051-9.949h420.645l0.112 10.495c0.008 0.403 0.015 0.806 0.015 1.209-0.001 116.032-94.396 210.43-210.425 210.43zM301.94 346.4c4.361 101.167 88.026 182.134 190.244 182.134 102.219 0 185.885-80.967 190.246-182.134H301.94z" fill="#323333" p-id="13199"></path><path d="M457.741 420.098c0 0.098-0.004 0.196-0.004 0.294 0 19.024 15.422 34.447 34.447 34.447 19.026 0 34.45-15.423 34.45-34.447 0-0.098-0.004-0.196-0.004-0.294h-68.889z" fill="#3D71B7" p-id="13200"></path><path d="M492.184 464.839c-24.508 0-44.447-19.939-44.447-44.447l0.004-0.346v-10l10 0.052h78.889l0.004 10.294c0 24.508-19.941 44.447-44.45 44.447z m-22.447-34.741c3.758 8.656 12.405 14.741 22.447 14.741 10.035 0 18.677-6.075 22.44-14.741h-44.887z" fill="#323333" p-id="13201"></path><path d="M837.21 884.052c-1.02-189.693-155.092-343.158-345.026-343.158S148.178 694.359 147.161 884.052H837.21z" fill="#FFFFFF" p-id="13202"></path><path d="M847.264 894.052H137.107l0.054-10.054c0.507-94.43 37.66-183.126 104.615-249.749 66.981-66.649 155.912-103.355 250.409-103.355 94.497 0 183.427 36.706 250.41 103.355 66.955 66.623 104.108 155.319 104.616 249.749l0.053 10.054z m-689.9-20h669.643c-6.299-179.1-154.44-323.158-334.823-323.158s-328.523 144.058-334.82 323.158z" fill="#323333" p-id="13203"></path><path d="M770.854 851.054c-0.824-153.213-125.265-277.162-278.67-277.162-153.404 0-277.846 123.949-278.668 277.162h557.338z" fill="#3D71B7" p-id="13204"></path><path d="M780.305 346.291H201.9c-11.028 0-20-9.832-20-21.917v-12.71c0-12.084 8.972-21.916 20-21.916h578.405c11.028 0 20 9.832 20 21.916v12.71c0 12.085-8.972 21.917-20 21.917z m-577.879-20h577.352c0.21-0.295 0.526-0.935 0.526-1.917v-12.71c0-0.982-0.315-1.621-0.526-1.916H202.426c-0.21 0.295-0.526 0.934-0.526 1.916v12.71c0 0.982 0.316 1.622 0.526 1.917z" fill="#3D71B7" p-id="13205"></path></svg>