<?xml version="1.0" standalone="no"?><!DOCTYPE svg PUBLIC "-//W3C//DTD SVG 1.1//EN" "http://www.w3.org/Graphics/SVG/1.1/DTD/svg11.dtd"><svg t="1621435781981" class="icon" viewBox="0 0 1911 1024" version="1.1" xmlns="http://www.w3.org/2000/svg" p-id="7767" xmlns:xlink="http://www.w3.org/1999/xlink" width="59.71875" height="32"><defs><style type="text/css"></style></defs><path d="M725.27251892 799.38749667c-7.76723001 0-15.53445888-7.76723001-15.53446003-15.53446001V395.49155555L600.99684446 682.87905223c0 7.76723001-7.76723001 7.76723001-7.76723002 7.76722887h-38.83614775c-7.76723001 0-7.76723001-7.76723001-7.76723002-7.76722887L437.88502224 403.25878557v388.3614811c0 7.76723001-7.76723001 15.53445888-15.53445888 15.53445888h-38.83614891c-7.76723001 0-15.53445888-7.76723001-15.53445888-15.53445888V240.14696334c0-7.76723001 7.76723001-15.53445888 15.53445888-15.53446001h38.83614891c7.76723001 0 7.76723001 0 7.76722886 7.76723l132.04290447 365.05979222 139.81013333-365.05979222c0-7.76723001 7.76723001-7.76723001 7.76722887-7.76723h38.83614891c7.76723001 0 15.53445888 7.76723001 15.53445888 15.53446001v551.47330333c0 7.76723001-7.76723001 15.53445888-15.53445888 15.53445888h-38.83614891v-7.76722888z m365.0597922 0c-7.76723001 0-7.76723001-7.76723001-15.53445887-7.76723l-38.83614891-178.6462811c0-7.76723001-7.76723001-15.53445888-15.53445889-15.53446002H919.4532589c-7.76723001 0-15.53445888 7.76723001-15.53445889 15.53446002l-46.60337777 178.6462811c0 7.76723001-7.76723001 7.76723001-7.76723001 7.76723h-38.83614778c-7.76723001 0-7.76723001 0-7.76723-7.76723V783.85303666l139.81013332-551.47330333c0-7.76723001 7.76723001-7.76723001 7.76723004-7.76723h38.83614774c7.76723001 0 7.76723001 7.76723001 15.53446003 7.76723l139.81013334 551.47330333v7.76723001c0 7.76723001-7.76723001 7.76723001-7.76723002 7.76723h-46.60337778z m-163.11182222-256.31857777V550.83614777H1020.42724445v-7.76722887l-46.60337778-178.64628224-46.60337776 178.64628224z m489.33546666 256.31857777c-7.76723001 0-7.76723001 0-15.53445887-7.76723l-85.43952668-201.94797-85.43952554 201.94797c0 7.76723001-7.76723001 7.76723001-7.76723003 7.76723h-38.83614776c-7.76723001 0-7.76723001 0-7.76723-7.76723s-7.76723001-7.76723001 0-7.76723001l108.74121556-256.31857778c7.76723001-7.76723001 7.76723001-15.53445888 0-31.06891776L1175.77183668 240.14696334v-7.76723001c0-7.76723001 7.76723001-7.76723001 7.76723-7.76723h38.83614776c7.76723001 0 7.76723001 0 7.76723002 7.76723l85.43952555 201.94797 85.43952668-201.94797c0-7.76723001 7.76723001-7.76723001 7.76722887-7.76723h38.8361489c7.76723001 0 7.76723001 0 7.76722887 7.76723V240.14696334l-108.74121442 256.31857778c-7.76723001 7.76723001-7.76723001 15.53445888 0 31.06891776l108.74121442 256.31857778v7.76723001c0 7.76723001-7.76723001 7.76723001-7.76722887 7.76723" p-id="7768" fill="#8d1203"></path></svg>