<?xml version="1.0" encoding="utf-8"?>
<!-- Generator: Adobe Illustrator 16.0.0, SVG Export Plug-In . SVG Version: 6.00 Build 0)  -->
<!DOCTYPE svg PUBLIC "-//W3C//DTD SVG 1.1//EN" "http://www.w3.org/Graphics/SVG/1.1/DTD/svg11.dtd">
<svg version="1.1" id="图层_1" xmlns="http://www.w3.org/2000/svg" xmlns:xlink="http://www.w3.org/1999/xlink" x="0px" y="0px"
	 width="37.5px" height="20.333px" viewBox="9.193 5.667 37.5 20.333" enable-background="new 9.193 5.667 37.5 20.333"
	 xml:space="preserve">
<path fill="#8D1203" d="M22.665,24.98c-0.243,0-0.485-0.242-0.485-0.484V12.359l-3.398,8.981c0,0.242-0.243,0.242-0.243,0.242
	h-1.214c-0.243,0-0.243-0.242-0.243-0.242l-3.398-8.738v12.136c0,0.242-0.243,0.485-0.486,0.485h-1.213
	c-0.243,0-0.485-0.243-0.485-0.485V7.504c0-0.243,0.243-0.485,0.485-0.485h1.213c0.243,0,0.243,0,0.243,0.243l4.126,11.408
	l4.369-11.408c0-0.243,0.243-0.243,0.243-0.243h1.214c0.243,0,0.485,0.243,0.485,0.485v17.234c0,0.242-0.243,0.485-0.485,0.485
	h-1.214V24.98H22.665z M34.072,24.98c-0.242,0-0.242-0.242-0.484-0.242l-1.214-5.583c0-0.243-0.243-0.485-0.485-0.485h-3.156
	c-0.243,0-0.485,0.242-0.485,0.485l-1.457,5.583c0,0.242-0.243,0.242-0.243,0.242h-1.213c-0.243,0-0.243,0-0.243-0.242v-0.242
	l4.369-17.234c0-0.243,0.243-0.243,0.243-0.243h1.214c0.242,0,0.242,0.243,0.484,0.243l4.369,17.234v0.242
	c0,0.242-0.242,0.242-0.242,0.242H34.072z M28.976,16.971v0.243h2.913v-0.243l-1.457-5.583L28.976,16.971z M44.268,24.98
	c-0.243,0-0.243,0-0.486-0.242l-2.67-6.311l-2.67,6.311c0,0.242-0.242,0.242-0.242,0.242h-1.214c-0.243,0-0.243,0-0.243-0.242
	s-0.242-0.242,0-0.242l3.398-8.011c0.243-0.243,0.243-0.485,0-0.971l-3.398-8.01V7.262c0-0.243,0.243-0.243,0.243-0.243h1.214
	c0.242,0,0.242,0,0.242,0.243l2.67,6.311l2.67-6.311c0-0.243,0.243-0.243,0.243-0.243h1.214c0.242,0,0.242,0,0.242,0.243v0.243
	l-3.397,8.01c-0.243,0.243-0.243,0.485,0,0.971l3.397,8.011v0.242c0,0.242-0.242,0.242-0.242,0.242"/>
</svg>
