<?xml version="1.0" standalone="no"?><!DOCTYPE svg PUBLIC "-//W3C//DTD SVG 1.1//EN" "http://www.w3.org/Graphics/SVG/1.1/DTD/svg11.dtd"><svg t="1621414659940" class="icon" viewBox="0 0 1024 1024" version="1.1" xmlns="http://www.w3.org/2000/svg" p-id="4148" xmlns:xlink="http://www.w3.org/1999/xlink" width="200" height="200"><defs><style type="text/css"></style></defs><path d="M544.9 438.6h-1.2c-0.5 6.6-1.7 12.9-3.5 18.9L517 535.8h54l-23-77.7c-1.5-4.9-2.5-11.4-3.1-19.5z" fill="#2E73FF" p-id="4149"></path><path d="M512 64C264.6 64 64 264.6 64 512s200.6 448 448 448 448-200.6 448-448S759.4 64 512 64z m-91.7 560h-42.7V488.1c0-12.5 0.6-28.3 1.7-47.3h-1c-2.6 14.4-4.7 24-6.3 28.8L322 624h-34.4l-50.7-153c-1.2-3.7-3.4-13.7-6.4-30.2h-1.2c1.1 18.8 1.7 37.6 1.7 56.5V624h-39V400h62.8l43.7 135.4c3.7 11.2 6.2 21.7 7.5 31.5h0.9c2.7-12.2 5.5-22.8 8.4-31.8L359.1 400h61.1v224z m176.1 0l-15.2-51.3h-73.7L492.6 624h-46.9L520 400h50.8l72.8 224h-47.2z m184.3 0l-36.4-74.3c-1.3-2.7-2.7-7.6-4.1-14.6h-0.5c-0.7 3.5-2.3 8.5-4.7 15L698.5 624h-51.7l65-112.1L652.4 400H705l30.2 68.5c2.4 5.6 4.5 11.8 6.3 18.5h0.5c1.8-6.1 4.1-12.5 6.7-19.2l33.4-67.8h48.3l-61.3 111.1L832 624h-51.3z" fill="#2E73FF" p-id="4150"></path></svg>