<?xml version="1.0" standalone="no"?><!DOCTYPE svg PUBLIC "-//W3C//DTD SVG 1.1//EN" "http://www.w3.org/Graphics/SVG/1.1/DTD/svg11.dtd"><svg t="1621563860780" class="icon" viewBox="0 0 1024 1024" version="1.1" xmlns="http://www.w3.org/2000/svg" p-id="37613" xmlns:xlink="http://www.w3.org/1999/xlink" width="200" height="200"><defs><style type="text/css"></style></defs><path d="M667.8016 267.1104H356.1984a22.2208 22.2208 0 1 1 0-44.544h311.6032a22.2208 22.2208 0 1 1 0 44.544zM667.8016 445.2352H356.1984a22.2208 22.2208 0 1 1 0-44.544h311.6032a22.2208 22.2208 0 1 1 0 44.544z" fill="#4A90E2" p-id="37614"></path><path d="M222.6176 554.2912V44.544h578.7648v509.7472l204.8-111.3088-160.256-120.2176V22.2208c0-13.312-8.9088-22.2208-22.272-22.2208H200.3456c-13.312 0-22.272 8.9088-22.272 22.272V327.168L17.8176 442.9824l204.8 111.3088z" fill="#4A90E2" p-id="37615"></path><path d="M523.1104 754.688c-4.4544 2.2016-6.656 2.2016-11.1104 2.2016s-6.656 0-11.1104-2.2528L0 485.376v494.1312c0 24.576 19.968 44.544 44.544 44.544h934.912c24.576 0 44.544-19.968 44.544-44.544V485.2736l-500.8896 269.3632z" fill="#4A90E2" p-id="37616"></path></svg>