<?xml version="1.0" standalone="no"?><!DOCTYPE svg PUBLIC "-//W3C//DTD SVG 1.1//EN" "http://www.w3.org/Graphics/SVG/1.1/DTD/svg11.dtd"><svg t="1619960448728" class="icon" viewBox="0 0 1024 1024" version="1.1" xmlns="http://www.w3.org/2000/svg" p-id="2414" xmlns:xlink="http://www.w3.org/1999/xlink" width="32" height="32"><defs><style type="text/css"></style></defs><path d="M0 110.09024C0 49.29024 49.3056 0 110.09024 0h235.49952C406.38976 0 455.68 49.3056 455.68 110.09024V440.32a15.36256 15.36256 0 0 1-15.35744 15.35744H110.09024C49.29024 455.68 0 406.3744 0 345.58976V110.09024z m61.44 10.22464C61.44 87.80032 87.79776 61.44 120.31488 61.44h215.05024C367.87968 61.44 394.24 87.79776 394.24 120.31488V394.24H120.31488C87.80032 394.24 61.44 367.88224 61.44 335.36512V120.31488zM1024 110.09024C1024 49.29024 974.6944 0 913.90976 0h-235.49952C617.61024 0 568.32 49.3056 568.32 110.09024V440.32a15.36256 15.36256 0 0 0 15.35744 15.35744h330.23232c60.8 0 110.09024-49.3056 110.09024-110.09024V110.09024z m-61.44 10.22464C962.56 87.80032 936.20224 61.44 903.68512 61.44h-215.05024C656.12032 61.44 629.76 87.79776 629.76 120.31488V394.24h273.92512C936.19968 394.24 962.56 367.88224 962.56 335.36512V120.31488zM0 913.90976C0 974.70976 49.3056 1024 110.09024 1024h235.49952c60.8 0 110.09024-49.3056 110.09024-110.09024V583.68a15.36256 15.36256 0 0 0-15.35744-15.35744H110.09024C49.29024 568.32 0 617.6256 0 678.41024v235.49952z m61.44-10.22464C61.44 936.19968 87.79776 962.56 120.31488 962.56h215.05024C367.87968 962.56 394.24 936.20224 394.24 903.68512V629.76H120.31488C87.80032 629.76 61.44 656.11776 61.44 688.63488v215.05024zM1024 913.90976c0 60.8-49.3056 110.09024-110.09024 110.09024h-235.49952C617.61024 1024 568.32 974.6944 568.32 913.90976V583.68a15.36256 15.36256 0 0 1 15.35744-15.35744h330.23232c60.8 0 110.09024 49.3056 110.09024 110.09024v235.49952z m-61.44-10.22464C962.56 936.19968 936.20224 962.56 903.68512 962.56h-215.05024C656.12032 962.56 629.76 936.20224 629.76 903.68512V629.76h273.92512C936.19968 629.76 962.56 656.11776 962.56 688.63488v215.05024z" fill="#d81e06" p-id="2415"></path></svg>