<?xml version="1.0" standalone="no"?><!DOCTYPE svg PUBLIC "-//W3C//DTD SVG 1.1//EN" "http://www.w3.org/Graphics/SVG/1.1/DTD/svg11.dtd"><svg t="1623210336420" class="icon" viewBox="0 0 1024 1024" version="1.1" xmlns="http://www.w3.org/2000/svg" p-id="1366" xmlns:xlink="http://www.w3.org/1999/xlink" width="200" height="200"><defs><style type="text/css"></style></defs><path d="M390.551182 437.044131a37.51 37.51 0 1 0 69.309442-28.708911 37.51 37.51 0 1 0-69.309442 28.708911Z" fill="#004039" p-id="1367"></path><path d="M875.54 492.18c-11.05 0-20 8.95-20 20v19.15h-52.52c-11.05 0-20 8.95-20 20s8.95 20 20 20h52.52v30.54h-74.45c-11.05 0-20 8.95-20 20s8.95 20 20 20h74.45v188.81c0 11.05 8.95 20 20 20s20-8.95 20-20v-318.5c0-11.05-8.95-20-20-20z" fill="#004039" p-id="1368"></path><path d="M711.081079 603.973005a37.51 37.51 0 1 0 28.708911-69.309443 37.51 37.51 0 1 0-28.708911 69.309443Z" fill="#004039" p-id="1369"></path><path d="M617.61 496.64c-7.81-7.81-20.47-7.81-28.28 0s-7.81 20.47 0 28.28l41.54 41.54a19.92 19.92 0 0 0 14.14 5.86c5.12 0 10.24-1.95 14.14-5.86 7.81-7.81 7.81-20.47 0-28.28l-41.54-41.54zM710.82 514.79c7.81-7.81 7.81-20.47 0-28.28l-41.54-41.54c-7.81-7.81-20.47-7.81-28.28 0s-7.81 20.47 0 28.28l41.54 41.54a19.92 19.92 0 0 0 14.14 5.86c5.12 0 10.24-1.95 14.14-5.86zM464.02 601.17c-5.12 0-10.24-1.95-14.14-5.86L291.93 437.36c-3.75-3.75-5.86-8.84-5.86-14.14s2.11-10.39 5.86-14.14l166.74-166.74c7.81-7.81 20.47-7.81 28.28 0s7.81 20.47 0 28.28l-152.6 152.6 129.67 129.67 247.85-247.86c4.6-4.6 7.14-10.77 7.14-17.36s-2.53-12.76-7.14-17.36l-94.95-94.95c-4.6-4.6-10.77-7.14-17.36-7.14s-12.76 2.53-17.36 7.13l-0.36 0.36c-7.82 7.8-20.48 7.79-28.28-0.03-7.8-7.82-7.79-20.48 0.03-28.28l0.33-0.33c12.16-12.16 28.37-18.85 45.64-18.85 17.28 0 33.49 6.69 45.64 18.85l94.95 94.95c12.16 12.16 18.86 28.37 18.85 45.65 0 17.27-6.7 33.48-18.85 45.64l-262 262c-3.89 3.91-9.01 5.86-14.13 5.86z" fill="#004039" p-id="1370"></path><path d="M515.95 233.34c-5.12 0-10.24-1.95-14.14-5.86-7.81-7.81-7.81-20.47 0-28.29l6.63-6.63c7.81-7.81 20.47-7.81 28.28 0 7.81 7.81 7.81 20.47 0 28.28l-6.63 6.64a19.937 19.937 0 0 1-14.14 5.86zM341.18 709.38c-16.74 0-34.24-6.94-47.84-20.53l-94.95-94.95c-25.17-25.17-27.53-63.76-5.25-86.03l49.35-49.35c3.75-3.75 8.84-5.86 14.14-5.86s10.39 2.11 14.14 5.86l157.95 157.95c3.75 3.75 5.86 8.84 5.86 14.14s-2.11 10.39-5.86 14.14l-49.35 49.35c-10.24 10.24-23.93 15.28-38.19 15.28z m-84.55-208.44l-35.21 35.21c-6.45 6.45-3.99 20.22 5.25 29.46l94.95 94.95c9.25 9.25 23.02 11.71 29.46 5.25l35.21-35.21-129.66-129.66z" fill="#004039" p-id="1371"></path><path d="M270.85 745.14l-16.54 16.54-20.8-20.8-14.72 14.72c-2.97 2.97-7.84 2.97-10.82 0l-76.33-76.33c-2.97-2.97-2.97-7.84 0-10.82l14.72-14.72-20.81-20.81 16.54-16.54c10.77-10.77 28.39-10.77 39.15 0l89.6 89.6c10.78 10.77 10.78 28.39 0.01 39.16z" fill="#B4E7B4" p-id="1372"></path></svg>