<?xml version="1.0" standalone="no"?><!DOCTYPE svg PUBLIC "-//W3C//DTD SVG 1.1//EN" "http://www.w3.org/Graphics/SVG/1.1/DTD/svg11.dtd"><svg t="1623126195215" class="icon" viewBox="0 0 1024 1024" version="1.1" xmlns="http://www.w3.org/2000/svg" p-id="10599" xmlns:xlink="http://www.w3.org/1999/xlink" width="200" height="200"><defs><style type="text/css"></style></defs><path d="M932 512H800a8 8 0 0 1 0-16h132a8 8 0 0 1 0 16zM932 560h-128a8 8 0 0 1 0-16h128a8 8 0 0 1 0 16zM932 608h-128a8 8 0 0 1 0-16h128a8 8 0 0 1 0 16zM944 880h-80a8 8 0 0 1 0-16h80a8 8 0 0 1 0 16zM992 880h-16a8 8 0 0 1 0-16h16a8 8 0 0 1 0 16zM160 880H80a8 8 0 0 1 0-16h80a8 8 0 0 1 0 16zM48 880H32a8 8 0 0 1 0-16h16a8 8 0 0 1 0 16zM512 560a182.944 182.944 0 0 1-177.52-136.016C308.72 423.168 288 401.968 288 376s20.72-47.168 46.48-47.984A182.944 182.944 0 0 1 512 192c83.904 0 155.936 55.584 177.52 136.016C715.28 328.832 736 350.032 736 376s-20.72 47.168-46.48 47.984A182.928 182.928 0 0 1 512 560z m-172.544-152.304c3.84 0 8.128 2.384 8.976 6.048C366.048 490.432 433.312 544 512 544s145.952-53.568 163.584-130.256a7.872 7.872 0 0 1 8.72-6.16c2.176 0.288 2.928 0.416 3.696 0.416 17.648 0 32-14.352 32-32s-14.352-32-32-32c-0.768 0-1.52 0.128-2.256 0.224-4.144 0.496-9.232-1.936-10.176-5.968C657.952 261.568 590.688 208 512 208s-145.952 53.568-163.584 130.256a8.064 8.064 0 0 1-8.72 6.16c-2.176-0.288-2.928-0.416-3.696-0.416-17.648 0-32 14.352-32 32s14.352 32 32 32c0.768 0 1.52-0.128 2.272-0.224a7.248 7.248 0 0 1 1.184-0.08z" fill="#263238" p-id="10600"></path><path d="M352 360h-8V256h48v64a40 40 0 0 1-40 40z" fill="#FFD740" p-id="10601"></path><path d="M352 368h-8a8 8 0 0 1-8-8V256a8 8 0 0 1 8-8h48a8 8 0 0 1 8 8v64c0 26.464-21.536 48-48 48z m0-16h0.16H352z m0-88V352c17.648 0 32-14.352 32-32v-56h-32z" fill="#263238" p-id="10602"></path><path d="M632 255.2V320a40 40 0 0 0 40 40h8v-126.96a79.68 79.68 0 0 1-48 22.16z" fill="#FFD740" p-id="10603"></path><path d="M680 368H672c-26.464 0-48-21.536-48-48v-64.8a8 8 0 0 1 7.2-7.968 71.952 71.952 0 0 0 43.184-19.904 8.016 8.016 0 0 1 13.616 5.712V360a8 8 0 0 1-8 8zM640 262.128V320c0 17.648 14.352 32 32 32v-102.416a89.12 89.12 0 0 1-32 12.544zM512 464a87.392 87.392 0 0 1-62.224-25.776 8 8 0 0 1 11.312-11.312c13.6 13.6 31.68 21.088 50.912 21.088s37.312-7.488 50.912-21.088a8 8 0 0 1 11.312 11.312A87.392 87.392 0 0 1 512 464z" fill="#263238" p-id="10604"></path><path d="M624 256H344A120 120 0 0 1 464 136h83.28c34.736 0 69.04-7.536 100.576-22.096L704 88V176a80 80 0 0 1-80 80z" fill="#FFD740" p-id="10605"></path><path d="M624 264H344a8 8 0 0 1-8-8c0-70.576 57.424-128 128-128h83.28a233.28 233.28 0 0 0 97.216-21.36l56.144-25.904a8 8 0 0 1 11.36 7.264V176c0 48.528-39.488 88-88 88z m-271.712-16H624c39.696 0 72-32.304 72-72V100.496l-44.784 20.672A249.776 249.776 0 0 1 547.28 144H464c-59.056 0-107.6 45.968-111.712 104z" fill="#263238" p-id="10606"></path><path d="M297.408 592h-52.88a38.288 38.288 0 0 1-37.456-30.704l-5.376-26.912-0.064-5.184a210.48 210.48 0 0 1-69.92-40.608l-3.392 1.952-27.424 9.44a38.32 38.32 0 0 1-45.328-17.088L29.12 437.104a38.304 38.304 0 0 1 7.872-47.792L57.6 371.184l4.544-2.704a212.272 212.272 0 0 1-3.984-40.48c0-13.296 1.328-26.848 3.968-40.4l-3.248-1.872-21.904-19.04a38.304 38.304 0 0 1-7.872-47.792l26.432-45.792a38.304 38.304 0 0 1 45.36-17.088l26 8.8 4.736 2.656a210.768 210.768 0 0 1 69.904-40.64V123.2l5.536-28.496A38.288 38.288 0 0 1 244.528 64h52.88c18.144 0 33.904 12.912 37.456 30.704l5.392 26.928 0.064 5.184c7.584 2.672 15.44 6.08 24.32 10.48a8 8 0 1 1-7.104 14.336 190.32 190.32 0 0 0-27.52-11.392 8 8 0 0 1-5.6-7.632V123.2l-5.232-25.344A22.272 22.272 0 0 0 297.408 80h-52.88c-10.544 0-19.696 7.504-21.776 17.856l-5.376 26.928 0.16 7.824a8 8 0 0 1-5.6 7.632 194.88 194.88 0 0 0-73.808 42.896 8 8 0 0 1-9.408 1.024l-8.384-4.832-24.56-8.144a22.304 22.304 0 0 0-26.352 9.936l-26.432 45.792a22.24 22.24 0 0 0 4.576 27.776l20.624 18.112 6.976 3.84a8 8 0 0 1 3.808 8.656c-3.168 14.32-4.784 28.688-4.784 42.704s1.616 28.384 4.784 42.704a8 8 0 0 1-3.808 8.656l-8.288 4.768-19.328 17.2a22.272 22.272 0 0 0-4.576 27.776l26.432 45.792a22.24 22.24 0 0 0 26.352 9.936l26-8.8 6.96-4.192a8.016 8.016 0 0 1 9.392 1.024 194.752 194.752 0 0 0 73.808 42.88 8 8 0 0 1 5.6 7.632v9.424l5.232 25.328c2.08 10.368 11.232 17.872 21.776 17.872h52.88c10.544 0 19.696-7.504 21.776-17.856l5.392-26.912-0.16-7.856a8 8 0 0 1 5.6-7.632c7.152-2.24 14.624-5.184 22.8-8.96a8 8 0 1 1 6.704 14.544c-6.72 3.104-13.024 5.68-19.104 7.824v3.664l-5.552 28.48A38.288 38.288 0 0 1 297.408 592z" fill="#263238" p-id="10607"></path><path d="M270.976 458.88c-72.16 0-130.88-58.704-130.88-130.88s58.704-130.88 130.88-130.88c17.248 0 34.064 3.344 50 9.952a8 8 0 0 1-6.112 14.784 114.128 114.128 0 0 0-43.888-8.72c-63.344 0-114.88 51.536-114.88 114.88s51.536 114.88 114.88 114.88c12.912 0 25.84-2.272 38.416-6.736a8.016 8.016 0 0 1 5.36 15.088 131.152 131.152 0 0 1-43.776 7.632zM352 960a8 8 0 0 1-8-8v-160a8 8 0 0 1 16 0v160a8 8 0 0 1-8 8zM672 960a8 8 0 0 1-8-8v-160a8 8 0 0 1 16 0v160a8 8 0 0 1-8 8zM446.944 696a8 8 0 0 1-7.488-5.2l-38.656-102.992a8 8 0 0 1 4.336-10.16l39.696-17.008a8 8 0 0 1 8.8 1.696l64 64a7.952 7.952 0 0 1-0.432 11.712l-65.056 56a7.872 7.872 0 0 1-5.2 1.952z m-28.48-106.64l31.936 85.104 49.84-42.896-54.08-54.08-27.696 11.872z" fill="#263238" p-id="10608"></path><path d="M576.912 696a7.936 7.936 0 0 1-5.216-1.952l-64.912-56a8 8 0 0 1-0.432-11.712l64-64a8.016 8.016 0 0 1 8.816-1.696l39.696 17.008a8 8 0 0 1 4.336 10.176l-38.8 102.992a8 8 0 0 1-7.488 5.184z m-53.168-64.432l49.712 42.896 32.064-85.104-27.68-11.872-54.096 54.08z" fill="#263238" p-id="10609"></path><path d="M800 960a8 8 0 0 1-8-8V743.12a111.84 111.84 0 0 0-67.888-102.944l-151.264-64.832a7.968 7.968 0 0 1-4.848-7.344v-16.832a182.896 182.896 0 0 1-112 0V568c0 3.2-1.904 6.096-4.848 7.344l-151.264 64.832a111.888 111.888 0 0 0-67.888 102.944V952a8 8 0 0 1-16 0V743.12a127.856 127.856 0 0 1 77.584-117.648L440 562.72v-22.896a8 8 0 0 1 10.912-7.44c39.328 15.408 82.832 15.424 122.16 0a8 8 0 0 1 10.928 7.44v22.896l146.416 62.752a127.856 127.856 0 0 1 77.584 117.648V952a8 8 0 0 1-8 8z" fill="#263238" p-id="10610"></path><path d="M988 768H832a8 8 0 0 1 0-16h148V448h-224v159.632a8 8 0 0 1-16 0V440a8 8 0 0 1 8-8h240a8 8 0 0 1 8 8v320a8 8 0 0 1-8 8zM888 288h-64a8 8 0 0 1 0-16h64a8 8 0 0 1 0 16z" fill="#263238" p-id="10611"></path><path d="M992 208h-64a8 8 0 0 1 0-16h64a8 8 0 0 1 0 16z" fill="#263238" p-id="10612"></path><path d="M960 240a8 8 0 0 1-8-8v-64a8 8 0 0 1 16 0v64a8 8 0 0 1-8 8z" fill="#263238" p-id="10613"></path><path d="M856 320a8 8 0 0 1-8-8v-64a8 8 0 0 1 16 0v64a8 8 0 0 1-8 8z" fill="#263238" p-id="10614"></path></svg>