<?xml version="1.0" standalone="no"?><!DOCTYPE svg PUBLIC "-//W3C//DTD SVG 1.1//EN" "http://www.w3.org/Graphics/SVG/1.1/DTD/svg11.dtd"><svg t="1623131232776" class="icon" viewBox="0 0 1024 1024" version="1.1" xmlns="http://www.w3.org/2000/svg" p-id="3257" xmlns:xlink="http://www.w3.org/1999/xlink" width="200" height="200"><defs><style type="text/css"></style></defs><path d="M460.8 921.6C206.7072 921.6 0 714.8928 0 460.8S206.7072 0 460.8 0s460.8 206.7072 460.8 460.8-206.7072 460.8-460.8 460.8z m0-870.4C234.944 51.2 51.2 234.944 51.2 460.8s183.744 409.6 409.6 409.6 409.6-183.744 409.6-409.6S686.656 51.2 460.8 51.2zM998.4 1024a25.4976 25.4976 0 0 1-18.0992-7.5008l-217.6-217.6a25.6 25.6 0 1 1 36.1984-36.1984l217.6 217.6A25.6 25.6 0 0 1 998.4 1024z" fill="#333333" p-id="3258"></path><path d="M755.2 486.4a25.6 25.6 0 0 1-25.6-25.6c0-148.224-120.5888-268.8-268.8-268.8a25.6 25.6 0 0 1 0-51.2c176.448 0 320 143.552 320 320a25.6 25.6 0 0 1-25.6 25.6z" fill="#333333" p-id="3259"></path></svg>