<?xml version="1.0" standalone="no"?><!DOCTYPE svg PUBLIC "-//W3C//DTD SVG 1.1//EN" "http://www.w3.org/Graphics/SVG/1.1/DTD/svg11.dtd"><svg t="1619960543904" class="icon" viewBox="0 0 1024 1024" version="1.1" xmlns="http://www.w3.org/2000/svg" p-id="5317" xmlns:xlink="http://www.w3.org/1999/xlink" width="32" height="32"><defs><style type="text/css"></style></defs><path d="M99.31801 4.645463L301.835239 1.261268l615.838595 32.368391 11.66361 13.986341 12.942361 862.932293-640.444566 112.215414-220.994185-101.775609V47.616L87.389659 40.285659h11.928351V4.647961zM100.152195 200.249444a6.13401 6.13401 0 0 0-6.136507 6.136507v111.965659a6.13401 6.13401 0 1 0 12.270517 0v-111.965659c0-3.38919-2.747317-6.136507-6.13401-6.136507z m0 131.903688a6.13401 6.13401 0 0 0-6.136507 6.136507v111.965659a6.13401 6.13401 0 0 0 12.270517 0v-111.965659c0-3.38919-2.747317-6.136507-6.13401-6.136507z m0 136.506692a6.13401 6.13401 0 0 0-6.136507 6.13401v111.965659a6.13401 6.13401 0 0 0 12.270517 0v-111.965659c0-3.386693-2.747317-6.13401-6.13401-6.13401z m0 131.903688a6.13401 6.13401 0 0 0-6.136507 6.13401v111.965658a6.13401 6.13401 0 1 0 12.270517 0v-111.965658c0-3.386693-2.747317-6.13401-6.13401-6.13401z m0 131.903688a6.13401 6.13401 0 0 0-6.136507 6.136507v111.965659a6.13401 6.13401 0 1 0 12.270517 0v-111.965659c0-3.38919-2.747317-6.136507-6.13401-6.136507zM120.507317 203.266498c-3.466615 0.022478-6.276371 2.619941-6.276371 5.801834v43.202809c0 3.181893 2.809756 5.84679 6.276371 5.954186l20.397581 0.63438c3.466615 0.109893 6.276371-2.440117 6.27637-5.694439V208.993405c0-3.251824-2.809756-5.874263-6.27637-5.851785l-20.397581 0.124878z m45.505561-0.274732c-3.469112 0.022478-6.278868 2.697366-6.278868 5.976663v44.546498c0 3.279298 2.809756 6.029112 6.27637 6.139005l20.397581 0.654361c3.466615 0.11239 6.276371-2.515044 6.276371-5.866771V208.923473c0-3.351727-2.809756-6.054088-6.276371-6.036605l-20.397581 0.107395z m45.500566-0.224781c-3.466615 0.014985-6.276371 2.767298-6.276371 6.144v45.890186c0 3.3792 2.809756 6.211434 6.276371 6.323824l20.39758 0.674342a6.019122 6.019122 0 0 0 6.276371-6.039103V208.898498a6.231415 6.231415 0 0 0-6.276371-6.221425l-20.39758 0.087415z m-91.006127 68.47563c-3.466615-0.137366-6.276371 2.330224-6.276371 5.509619v43.205307c0 3.181893 2.809756 5.976663 6.276371 6.243903l20.397581 1.578458c3.466615 0.267239 6.276371-2.1504 6.27637-5.404722V278.203317c0-3.254322-2.809756-6.004137-6.27637-6.144l-20.397581-0.814205z m45.505561 1.830712c-3.469112-0.142361-6.278868 2.402654-6.278868 5.684449v44.546497c0 3.279298 2.809756 6.156488 6.27637 6.428722l20.397581 1.598439c3.466615 0.269737 6.276371-2.225327 6.276371-5.577054v-45.518048c0-3.351727-2.809756-6.186459-6.276371-6.32882l-20.397581-0.834185z m45.500566 1.873171c-3.466615-0.142361-6.276371 2.480078-6.276371 5.859278v45.887687c0 3.3792 2.809756 6.33881 6.276371 6.613542l20.39758 1.615922c3.466615 0.274732 6.276371-2.297756 6.276371-5.746888v-46.861737c0-3.451629-2.809756-6.36878-6.276371-6.513639l-20.39758-0.854165z m-91.006127 62.826146c-3.466615-0.294712-6.276371 2.045502-6.276371 5.227395v43.20281c0 3.181893 2.809756 6.104039 6.276371 6.528624l20.397581 2.497561c3.466615 0.427083 6.276371-1.86318 6.27637-5.117502V345.937171c0-3.254322-2.809756-6.131512-6.27637-6.426225l-20.397581-1.738302z m45.505561 3.888702c-3.469112-0.299707-6.278868 2.120429-6.278868 5.399727v44.546498c0 3.279298 2.809756 6.286361 6.27637 6.713444l20.397581 2.520039c3.466615 0.427083 6.276371-1.940605 6.276371-5.29483V350.033171c0-3.351727-2.809756-6.313834-6.276371-6.611044l-20.397581-1.758283z m45.500566 3.931161c-3.466615-0.299707-6.276371 2.195356-6.276371 5.574556v45.887688c0 3.3792 2.809756 6.468683 6.276371 6.898264l20.39758 2.540019c3.466615 0.432078 6.276371-2.015532 6.276371-5.464663v-46.861737c0-3.449132-2.809756-6.493659-6.276371-6.795863l-20.39758-1.778264z m-91.006127 60.156254c-3.466615-0.454556-6.276371 1.755785-6.276371 4.937678v43.20281c0 3.181893 2.809756 6.233912 6.276371 6.818341l20.397581 3.441639c3.466615 0.586927 6.276371-1.573463 6.27637-4.827785V415.144585c0-3.251824-2.809756-6.258888-6.27637-6.715941l-20.397581-2.679883z m45.505561 5.991649c-3.469112-0.459551-6.278868 1.830712-6.278868 5.11001v44.546497c0 3.279298 2.809756 6.416234 6.27637 7.003161l20.397581 3.46162c3.466615 0.589424 6.276371-1.64839 6.276371-5.002615v-45.518049c0-3.351727-2.809756-6.44121-6.276371-6.900761l-20.397581-2.699863z m45.500566 6.034107c-3.466615-0.459551-6.276371 1.905639-6.276371 5.284839v45.887688c0 3.3792 2.809756 6.598556 6.276371 7.18798l20.39758 3.4816c3.466615 0.59442 6.276371-1.723317 6.276371-5.174946V427.582439c0-3.451629-2.809756-6.623532-6.276371-7.088078l-20.39758-2.719844z m-91.006127 55.950361c-3.466615-0.616898-6.276371 1.466068-6.276371 4.645463v43.205308c0 3.181893 2.809756 6.363785 6.276371 7.108058l20.397581 4.385717c3.466615 0.746771 6.276371-1.286244 6.27637-4.540565v-44.174361c0-3.254322-2.809756-6.391259-6.27637-7.008157l-20.397581-3.621463z m45.505561 8.092098c-3.469112-0.616898-6.278868 1.540995-6.278868 4.820292v44.548995c0 3.279298 2.809756 6.54361 6.27637 7.292878l20.397581 4.405698c3.466615 0.749268 6.276371-1.361171 6.276371-4.712898v-45.518048c0-3.351727-2.809756-6.571083-6.276371-7.192976l-20.397581-3.641444z m45.500566 8.142048c-3.466615-0.62439-6.276371 1.613424-6.276371 4.992625v45.887688c0 3.3792 2.809756 6.725932 6.276371 7.477697l20.39758 4.425678c3.466615 0.751766 6.276371-1.4336 6.276371-4.885229v-46.861737c0-3.449132-2.809756-6.753405-6.276371-7.375297l-20.39758-3.663922z m-91.006127 50.295883c-3.466615-0.774244-6.276371 1.181346-6.276371 4.363239v43.20281c0 3.181893 2.809756 6.491161 6.276371 7.392781l20.397581 5.307317c3.466615 0.904117 6.276371-1.001522 6.27637-4.255844v-44.174361c0-3.254322-2.809756-6.518634-6.27637-7.292878l-20.397581-4.545561z m45.505561 10.152586c-3.469112-0.774244-6.278868 1.256273-6.278868 4.53557v44.546498c0 3.279298 2.809756 6.673483 6.27637 7.5776l20.397581 5.327298c3.466615 0.906615 6.276371-1.073951 6.276371-4.428176v-45.518049c0-3.351727-2.809756-6.698459-6.276371-7.4752l-20.397581-4.565541z m45.500566 10.195044c-3.466615-0.776741-6.276371 1.3312-6.276371 4.7104v45.887687c0 3.3792 2.809756 6.855805 6.276371 7.76242l20.39758 5.347278c3.466615 0.909112 6.276371-1.148878 6.276371-4.600507v-46.859239c0-3.451629-2.809756-6.88078-6.276371-7.662517l-20.39758-4.585522z m-91.006127 47.628487c-3.466615-0.934088-6.276371 0.891629-6.276371 4.071025v43.205307c0 3.181893 2.809756 6.618537 6.276371 7.682498l20.397581 6.251395c3.466615 1.061463 6.276371-0.711805 6.27637-3.966127v-44.176859c0-3.251824-2.809756-6.64601-6.27637-7.580097l-20.397581-5.487142z m45.505561 12.255532c-3.469112-0.936585-6.278868 0.966556-6.278868 4.245854v44.546497c0 3.279298 2.809756 6.800859 6.27637 7.867317l20.397581 6.268878c3.466615 1.066459 6.276371-0.784234 6.276371-4.135961v-45.518048c0-3.351727-2.809756-6.830829-6.276371-7.767415l-20.397581-5.507122z m45.500566 12.29799c-3.466615-0.936585-6.276371 1.041483-6.276371 4.420683v45.887688c0 3.3792 2.809756 6.985678 6.276371 8.052137l20.39758 6.291356c3.466615 1.068956 6.276371-0.861659 6.276371-4.31079v-46.861737c0-3.449132-2.809756-7.010654-6.276371-7.949737l-20.39758-5.5296z m-91.006127 43.420098c-3.466615-1.091434-6.276371 0.601912-6.276371 3.783805v43.205307c0 3.181893 2.809756 6.750907 6.276371 7.972215l20.397581 7.192975c3.466615 1.223805 6.276371-0.422088 6.27637-3.673912v-44.176858c0-3.251824-2.809756-6.775883-6.27637-7.869815l-20.397581-6.433717z m45.505561 14.360976c-3.469112-1.096429-6.278868 0.674341-6.278868 3.956136v44.546498c0 3.279298 2.809756 6.930732 6.27637 8.157034l20.397581 7.212956c3.466615 1.226302 6.276371-0.497015 6.276371-3.846244v-45.520546c0-3.351727-2.809756-6.958205-6.276371-8.054634l-20.397581-6.4512z m45.500566 14.400936c-3.466615-1.098927-6.276371 0.749268-6.276371 4.130966v45.887688c0 3.3792 2.809756 7.113054 6.276371 8.341853l20.39758 7.232937c3.466615 1.231298 6.276371-0.569444 6.276371-4.021073v-46.859239c0-3.451629-2.809756-7.143024-6.276371-8.241951l-20.39758-6.468683z m-91.006127 37.768117c-3.466615-1.24878-6.276371 0.319688-6.276371 3.501581v43.202809c0 3.181893 2.809756 6.878283 6.276371 8.256937l20.397581 8.117073c3.466615 1.378654 6.276371-0.139863 6.27637-3.391688v-44.176858c0-3.251824-2.809756-6.903259-6.27637-8.154537l-20.397581-7.355317z m45.505561 16.418966c-3.469112-1.253776-6.278868 0.392117-6.278868 3.671415v44.546497c0 3.279298 2.809756 7.060605 6.27637 8.441756l20.397581 8.134556c3.466615 1.383649 6.276371-0.212293 6.276371-3.564019V774.868293c0-3.351727-2.809756-7.08558-6.276371-8.339356l-20.397581-7.3728z m45.500566 16.458927c-3.466615-1.253776-6.276371 0.467044-6.276371 3.846244v45.890185c0 3.3792 2.809756 7.240429 6.276371 8.624078l20.39758 8.157034c3.466615 1.386146 6.276371-0.28722 6.276371-3.738848v-46.859239c0-3.451629-2.809756-7.267902-6.276371-8.524176l-20.39758-7.392781z m-91.006127 35.098224c-3.466615-1.408624-6.276371 0.029971-6.276371 3.209366v43.205307c0 3.181893 2.809756 7.008156 6.276371 8.546654l20.397581 9.058654c3.466615 1.540995 6.276371 0.149854 6.27637-3.101971v-44.174361c0-3.254322-2.809756-7.035629-6.27637-8.446751l-20.397581-8.296898z m45.505561 18.521912c-3.469112-1.41362-6.278868 0.099902-6.278868 3.381698v44.546498c0 3.279298 2.809756 7.18798 6.27637 8.731473l20.397581 9.078634c3.466615 1.543493 6.276371 0.074927 6.276371-3.274303v-45.518048c0-3.351727-2.809756-7.217951-6.276371-8.629074l-20.397581-8.316878z m45.500566 18.564371c-3.466615-1.416117-6.276371 0.174829-6.276371 3.554029v45.887688c0 3.3792 2.809756 7.3728 6.276371 8.916293l20.39758 9.098615c3.466615 1.548488 6.276371 0.004995 6.276371-3.446635v-46.861736c0-3.449132-2.809756-7.395278-6.276371-8.813893l-20.39758-8.334361zM319.480507 36.134712v917.194303h26.074537V36.134712h-26.074537z m297.551922 16.871025V907.313951h24.538537V53.005737h-24.538537zM112.420215 887.778029c-3.386693-1.243785-6.13401 0.49202-6.13401 3.88121v29.141541c0 3.38919 2.747317 7.143024 6.13401 8.391805l41.412058 15.217639c3.38919 1.246283 6.136507-0.49202 6.136507-3.881209v-29.141542c0-3.386693-2.747317-7.143024-6.136507-8.389307l-41.409561-15.220137z m111.965658 49.082069c-3.386693-1.246283-6.13401 0.49202-6.13401 3.878712v29.141541c0 3.38919 2.747317 7.145522 6.13401 8.391805l41.412059 15.217639c3.38919 1.24878 6.136507-0.49202 6.136507-3.878712v-29.141542c0-3.38919-2.747317-7.143024-6.136507-8.391804l-41.409561-15.217639z m153.377717 14.815531c-3.38919 0.53198-6.13401 3.713873-6.13401 7.100566v24.541034c0 3.38919 2.747317 5.701932 6.13401 5.169951l105.829151-16.676214c3.38919-0.534478 6.136507-3.713873 6.136508-7.103064v-24.541034c0-3.386693-2.747317-5.701932-6.136508-5.167453l-105.829151 16.676214z m361.971512-58.148214c-3.38919 0.459551-6.136507 3.576507-6.136507 6.968195v24.538536c0 3.386693 2.747317 5.761873 6.13401 5.30482l105.831649-14.31602c3.386693-0.459551 6.13401-3.576507 6.134009-6.965697v-24.538537c0-3.38919-2.747317-5.764371-6.134009-5.307317l-105.831649 14.31602z" p-id="5318" fill="#d81e06"></path></svg>