<?xml version="1.0" standalone="no"?><!DOCTYPE svg PUBLIC "-//W3C//DTD SVG 1.1//EN" "http://www.w3.org/Graphics/SVG/1.1/DTD/svg11.dtd"><svg t="1623126326650" class="icon" viewBox="0 0 1024 1024" version="1.1" xmlns="http://www.w3.org/2000/svg" p-id="14646" xmlns:xlink="http://www.w3.org/1999/xlink" width="200" height="200"><defs><style type="text/css"></style></defs><path d="M847.438 926.891H176.564c-44.143 0-79.447-35.32-79.447-79.445v-670.89c0-44.134 35.305-79.447 79.447-79.447h670.874c44.158 0 79.446 35.313 79.446 79.447v670.89c0 44.125-37.076 79.445-79.446 79.445z m-662.052-88.283h653.246V185.386H185.386v653.222z" fill="#515151" p-id="14647"></path><path d="M153.607 282.486H870.41v88.277H153.607v-88.277z" fill="#515151" p-id="14648"></path><path d="M286.019 137.719h70.625v178.317h-70.625V137.719z m190.673 0h70.633v178.317h-70.633V137.719z m187.156 0h70.608v178.317h-70.608V137.719z m10.592 443.148L448.446 450.21c-19.422-10.593-42.372 3.533-42.372 24.719v261.29c0 21.186 22.949 35.32 42.372 24.729L674.44 630.289c19.398-12.345 19.398-38.83 0-49.422z" fill="#515151" p-id="14649"></path></svg>