<?xml version="1.0" standalone="no"?><!DOCTYPE svg PUBLIC "-//W3C//DTD SVG 1.1//EN" "http://www.w3.org/Graphics/SVG/1.1/DTD/svg11.dtd"><svg t="1621418817483" class="icon" viewBox="0 0 1077 1024" version="1.1" xmlns="http://www.w3.org/2000/svg" p-id="5783" xmlns:xlink="http://www.w3.org/1999/xlink" width="210.3515625" height="200"><defs><style type="text/css"></style></defs><path d="M463.5648 0a89.6 89.6 0 0 1 61.824 24.7424l291.6224 277.9264A89.6 89.6 0 0 1 844.8 367.5264V883.2a89.6 89.6 0 0 1-89.6 89.6H89.6a89.6 89.6 0 0 1-89.6-89.6V89.6a89.6 89.6 0 0 1 89.6-89.6zM441.6 76.8H89.6a12.8 12.8 0 0 0-12.8 12.8v793.6a12.8 12.8 0 0 0 12.8 12.8h665.6a12.8 12.8 0 0 0 12.8-12.8V396.8H531.2a89.6 89.6 0 0 1-89.5488-86.528L441.6 307.2V76.8z m282.2784 243.2L518.4 124.1728V307.2a12.8 12.8 0 0 0 11.3024 12.7104L531.2 320h192.6784z" fill="#303133" p-id="5784"></path><path d="M512 742.4a38.4 38.4 0 0 1 2.2528 76.736L512 819.2H204.8a38.4 38.4 0 0 1-2.2528-76.736L204.8 742.4h307.2z m128-153.6a38.4 38.4 0 0 1 2.2528 76.736L640 665.6H204.8a38.4 38.4 0 0 1-2.2528-76.736L204.8 588.8h435.2zM435.2 435.2a38.4 38.4 0 0 1 2.2528 76.736L435.2 512H204.8a38.4 38.4 0 0 1-2.2528-76.736L204.8 435.2h230.4z" fill="#FF6F26" p-id="5785"></path></svg>